<?xml version="1.0"?>
<svg xmlns="http://www.w3.org/2000/svg" xmlns:xlink="http://www.w3.org/1999/xlink" xmlns:svgjs="http://svgjs.com/svgjs" version="1.1" width="512" height="512" x="0" y="0" viewBox="0 0 512 512" style="enable-background:new 0 0 512 512" xml:space="preserve" class=""><g><g xmlns="http://www.w3.org/2000/svg" id="Outline"><path d="M456,376h16v56a8,8,0,0,1-8,8H248V424H456Zm35.909-246.98L424,90.991V40a8,8,0,0,0-8-8H384a8,8,0,0,0-8,8V64.111L291.909,17.02a8,8,0,0,0-7.818,0l-157.143,88,7.818,13.96L288,33.169,380.091,84.74A8,8,0,0,0,392,77.76V48h16V95.68a8,8,0,0,0,4.091,6.98l47.552,26.629A7.993,7.993,0,0,0,456,136V360h16V144h16a8,8,0,0,0,3.909-14.98ZM280,56v72H168v16H280V272H208v16h72V408h16V288H440V272H296V144H440V128H296V56Zm72,184V228.836a25.577,25.577,0,0,0-3.67-12.759,32,32,0,1,1,55.249.155A24.385,24.385,0,0,0,400,228.511V240a8,8,0,0,1-8,8H360A8,8,0,0,1,352,240Zm10.157-31.974A41.574,41.574,0,0,1,368,228.836V232h16v-3.489a40.358,40.358,0,0,1,5.8-20.407,16,16,0,0,0-14.833-24.072,16.157,16.157,0,0,0-14.939,15.044A15.961,15.961,0,0,0,362.157,208.026ZM336,200H312v16h24Zm-10.343-45.657-11.314,11.314,16,16,11.314-11.314Zm16,91.314-11.314-11.314-16,16,11.314,11.314ZM440,200H416v16h24Zm-2.343-34.343-11.314-11.314-16,16,11.314,11.314Zm-11.314,96,11.314-11.314-16-16-11.314,11.314ZM208,228.511V248h8a8,8,0,0,0,8-8V228.511a24.385,24.385,0,0,1,3.579-12.279,31.978,31.978,0,0,0-51.369-37.579l11.9,10.694A15.982,15.982,0,0,1,213.8,208.1,40.358,40.358,0,0,0,208,228.511ZM240,216h24V200H240Zm-5.657-45.657,11.314,11.314,16-16-11.314-11.314Zm16,91.314,11.314-11.314-16-16-11.314,11.314ZM352,384V372.836a25.577,25.577,0,0,0-3.67-12.759,32,32,0,1,1,55.249.155A24.385,24.385,0,0,0,400,372.511V384a8,8,0,0,1-8,8H360A8,8,0,0,1,352,384Zm10.157-31.974A41.574,41.574,0,0,1,368,372.836V376h16v-3.489a40.358,40.358,0,0,1,5.8-20.407,16,16,0,0,0-14.833-24.072,16.157,16.157,0,0,0-14.939,15.044A15.961,15.961,0,0,0,362.157,352.026ZM312,360h24V344H312Zm13.657-61.657-11.314,11.314,16,16,11.314-11.314Zm-11.314,96,11.314,11.314,16-16-11.314-11.314ZM416,360h24V344H416Zm-5.657-45.657,11.314,11.314,16-16-11.314-11.314Zm16,91.314,11.314-11.314-16-16-11.314,11.314ZM240,360h24V344H240Zm-5.657-45.657,11.314,11.314,16-16-11.314-11.314Zm16,91.314,11.314-11.314-16-16-11.314,11.314ZM48,496h88V480H48a16.019,16.019,0,0,1-16-16V264H16V464A32.036,32.036,0,0,0,48,496Zm64-208V256a8,8,0,0,1,8-8h32a8,8,0,0,1,8,8v32a8,8,0,0,1-8,8H120A8,8,0,0,1,112,288Zm16-8h16V264H128Zm-80,8V256a8,8,0,0,1,8-8H88a8,8,0,0,1,8,8v32a8,8,0,0,1-8,8H56A8,8,0,0,1,48,288Zm16-8H80V264H64ZM48,320a8,8,0,0,1,8-8H88a8,8,0,0,1,8,8v32a8,8,0,0,1-8,8H56a8,8,0,0,1-8-8Zm16,24H80V328H64ZM48,384a8,8,0,0,1,8-8H88a8,8,0,0,1,8,8v32a8,8,0,0,1-8,8H56a8,8,0,0,1-8-8Zm16,24H80V392H64Zm48-88a8,8,0,0,1,8-8h32a8,8,0,0,1,8,8v32a8,8,0,0,1-8,8H120a8,8,0,0,1-8-8Zm16,24h16V328H128Zm-8,104H88v16h32ZM32,232a16.019,16.019,0,0,1,16-16H67.056l5.789,11.578A8,8,0,0,0,80,232h48a8,8,0,0,0,7.155-4.422L140.944,216H160a16.019,16.019,0,0,1,16,16V388.686l-13.373-13.372a24.944,24.944,0,0,0-35.952.686H120a8,8,0,0,0-8,8v32a8,8,0,0,0,8,8h20.686l9.3,9.3a57.848,57.848,0,0,0-.239,52.08L152,489.889V496h16v-8a7.994,7.994,0,0,0-.845-3.578l-3.1-6.2a41.794,41.794,0,0,1,2.6-41.784,8,8,0,0,0-1-10.095l-27.03-27.029a8.971,8.971,0,0,1,12.687-12.687l43.029,43.03,11.314-11.314L192,404.687V347.314l14.627,14.627A31.791,31.791,0,0,1,216,384.568V496h16V384.568a47.686,47.686,0,0,0-14.059-33.941L192,324.687V232a32.036,32.036,0,0,0-32-32H48a32.036,32.036,0,0,0-32,32v16H32Zm42.343-61.657,11.314,11.314a25.969,25.969,0,0,1,36.686,0l11.314-11.314A41.989,41.989,0,0,0,74.343,170.343Zm83.314-20.117a75.968,75.968,0,0,0-107.314,0l11.314,11.313a59.882,59.882,0,0,1,84.686,0Z" fill="#ffffff" data-original="#000000" style="" class=""/></g></g></svg>
