<?xml version="1.0"?>
<svg xmlns="http://www.w3.org/2000/svg" xmlns:xlink="http://www.w3.org/1999/xlink" xmlns:svgjs="http://svgjs.com/svgjs" version="1.1" width="512" height="512" x="0" y="0" viewBox="0 0 512 512" style="enable-background:new 0 0 512 512" xml:space="preserve" class=""><g><g xmlns="http://www.w3.org/2000/svg" id="Flat"><path d="m416 95.68v-55.68h-32v37.76l-96-53.76-200 112h24v296h352v-296h24z" fill="#b09058" data-original="#348ed8" style="" class=""/><path d="m440 144v-16h-144v-72h-16v72h-144v16h144v128h-144v16h144v120h16v-120h144v-16h-144v-128z" fill="#fcf4e3" data-original="#2c86d1" style="" class=""/><g fill="#ffb431"><path d="m400 200a24 24 0 1 0 -44.757 12.052 33.415 33.415 0 0 1 4.757 16.785v11.163h32v-11.489a32.235 32.235 0 0 1 4.688-16.343 23.873 23.873 0 0 0 3.312-12.168z" fill="#fcf4e3" data-original="#ffb431" style="" class=""/><path d="m312 200h24v16h-24z" fill="#fcf4e3" data-original="#ffb431" style="" class=""/><path d="m320 156.686h16v22.627h-16z" transform="matrix(.707 -.707 .707 .707 -22.725 281.137)" fill="#fcf4e3" data-original="#ffb431" style="" class=""/><path d="m316.686 240h22.627v16h-22.627z" transform="matrix(.707 -.707 .707 .707 -79.294 304.569)" fill="#fcf4e3" data-original="#ffb431" style="" class=""/><path d="m416 200h24v16h-24z" fill="#fcf4e3" data-original="#ffb431" style="" class=""/><path d="m412.686 160h22.627v16h-22.627z" transform="matrix(.707 -.707 .707 .707 5.393 349.019)" fill="#fcf4e3" data-original="#ffb431" style="" class=""/><path d="m416 236.686h16v22.627h-16z" transform="matrix(.707 -.707 .707 .707 -51.176 372.451)" fill="#fcf4e3" data-original="#ffb431" style="" class=""/><path d="m224 200a24 24 0 1 0 -44.757 12.052 33.415 33.415 0 0 1 4.757 16.785v11.163h32v-11.489a32.235 32.235 0 0 1 4.688-16.343 23.873 23.873 0 0 0 3.312-12.168z" fill="#fcf4e3" data-original="#ffb431" style="" class=""/><path d="m136 200h24v16h-24z" fill="#fcf4e3" data-original="#ffb431" style="" class=""/><path d="m144 156.686h16v22.627h-16z" transform="matrix(.707 -.707 .707 .707 -74.274 156.686)" fill="#fcf4e3" data-original="#ffb431" style="" class=""/><path d="m140.686 240h22.627v16h-22.627z" transform="matrix(.707 -.707 .707 .707 -130.843 180.118)" fill="#fcf4e3" data-original="#ffb431" style="" class=""/><path d="m240 200h24v16h-24z" fill="#fcf4e3" data-original="#ffb431" style="" class=""/><path d="m236.686 160h22.627v16h-22.627z" transform="matrix(.707 -.707 .707 .707 -46.156 224.569)" fill="#fcf4e3" data-original="#ffb431" style="" class=""/><path d="m240 236.686h16v22.627h-16z" transform="matrix(.707 -.707 .707 .707 -102.725 248)" fill="#fcf4e3" data-original="#ffb431" style="" class=""/><path d="m400 344a24 24 0 1 0 -44.757 12.052 33.415 33.415 0 0 1 4.757 16.785v11.163h32v-11.489a32.235 32.235 0 0 1 4.688-16.343 23.873 23.873 0 0 0 3.312-12.168z" fill="#fcf4e3" data-original="#ffb431" style="" class=""/><path d="m312 344h24v16h-24z" fill="#fcf4e3" data-original="#ffb431" style="" class=""/><path d="m320 300.686h16v22.627h-16z" transform="matrix(.707 -.707 .707 .707 -124.548 323.314)" fill="#fcf4e3" data-original="#ffb431" style="" class=""/><path d="m316.686 384h22.627v16h-22.627z" transform="matrix(.707 -.707 .707 .707 -181.117 346.745)" fill="#fcf4e3" data-original="#ffb431" style="" class=""/><path d="m416 344h24v16h-24z" fill="#fcf4e3" data-original="#ffb431" style="" class=""/><path d="m412.686 304h22.627v16h-22.627z" transform="matrix(.707 -.707 .707 .707 -96.431 391.196)" fill="#fcf4e3" data-original="#ffb431" style="" class=""/><path d="m416 380.686h16v22.627h-16z" transform="matrix(.707 -.707 .707 .707 -152.999 414.627)" fill="#fcf4e3" data-original="#ffb431" style="" class=""/><path d="m224 344a24 24 0 1 0 -44.757 12.052 33.415 33.415 0 0 1 4.757 16.785v11.163h32v-11.489a32.235 32.235 0 0 1 4.688-16.343 23.873 23.873 0 0 0 3.312-12.168z" fill="#fcf4e3" data-original="#ffb431" style="" class=""/><path d="m136 344h24v16h-24z" fill="#fcf4e3" data-original="#ffb431" style="" class=""/><path d="m144 300.686h16v22.627h-16z" transform="matrix(.707 -.707 .707 .707 -176.098 198.863)" fill="#fcf4e3" data-original="#ffb431" style="" class=""/><path d="m140.686 384h22.627v16h-22.627z" transform="matrix(.707 -.707 .707 .707 -232.666 222.294)" fill="#fcf4e3" data-original="#ffb431" style="" class=""/><path d="m240 344h24v16h-24z" fill="#fcf4e3" data-original="#ffb431" style="" class=""/><path d="m236.686 304h22.627v16h-22.627z" transform="matrix(.707 -.707 .707 .707 -147.98 266.745)" fill="#fcf4e3" data-original="#ffb431" style="" class=""/><path d="m240 380.686h16v22.627h-16z" transform="matrix(.707 -.707 .707 .707 -204.548 290.177)" fill="#fcf4e3" data-original="#ffb431" style="" class=""/></g><rect fill="#000000" height="280" rx="24" width="160" x="24" y="207.965" data-original="#d26699" style="" class=""/><path d="m120 255.965h32v32h-32z" fill="#fcf4e3" data-original="#b63e7e" style="" class=""/><path d="m56 255.965h32v32h-32z" fill="#fcf4e3" data-original="#b63e7e" style="" class=""/><path d="m56 319.965h32v32h-32z" fill="#fcf4e3" data-original="#b63e7e" style="" class=""/><path d="m56 383.965h32v32h-32z" fill="#fcf4e3" data-original="#b63e7e" style="" class=""/><path d="m120 383.965h32v32h-32z" fill="#fcf4e3" data-original="#b63e7e" style="" class=""/><path d="m120 319.965h32v32h-32z" fill="#fcf4e3" data-original="#b63e7e" style="" class=""/><path d="m88 447.965h32v16h-32z" fill="#fcf4e3" data-original="#b63e7e" style="" class=""/><path d="m80 223.965h48l8-16h-64z" fill="#fcf4e3" data-original="#b63e7e" style="" class=""/><path d="m212.284 348.249-28.284-28.284v80l-27.029-27.03a16.975 16.975 0 0 0 -12-4.97 16.97 16.97 0 0 0 -16.971 16.97 16.968 16.968 0 0 0 4.971 12l27.029 27.03a49.7 49.7 0 0 0 -3.1 49.8l3.1 6.2v8h64v-111.432a40 40 0 0 0 -11.716-28.284z" fill="#fdc8a2" data-original="#fdc8a2" style="" class=""/><rect fill="#fdb683" height="22.627" rx="8" transform="matrix(.707 -.707 .707 .707 -232.239 255.255)" width="16" x="184" y="396.651" data-original="#fdb683" style="" class=""/><path d="m122.343 181.621a25.971 25.971 0 0 0 -36.686 0l-11.314-11.313a41.987 41.987 0 0 1 59.314 0z" fill="#000000" data-original="#d26699" style="" class=""/><path d="m146.343 161.5a59.882 59.882 0 0 0 -84.686 0l-11.314-11.31a75.968 75.968 0 0 1 107.314 0z" fill="#000000" data-original="#d26699" style="" class=""/></g></g></svg>
