<?xml version="1.0" standalone="no"?>
<!DOCTYPE svg PUBLIC "-//W3C//DTD SVG 20010904//EN"
 "http://www.w3.org/TR/2001/REC-SVG-20010904/DTD/svg10.dtd">
<svg version="1.0" xmlns="http://www.w3.org/2000/svg"
 width="1494.000000pt" height="1462.000000pt" viewBox="0 0 1494.000000 1462.000000"
 preserveAspectRatio="xMidYMid meet">

<g transform="translate(0.000000,1462.000000) scale(0.100000,-0.100000)"
fill="#000000" stroke="none">
<path d="M2133 14592 c-63 -22 -115 -61 -154 -115 -64 -88 -59 239 -59 -4018
l0 -3878 -102 -57 c-308 -172 -560 -366 -818 -630 -251 -257 -435 -510 -596
-819 -285 -547 -408 -1111 -382 -1748 51 -1253 798 -2394 1938 -2961 358 -178
699 -281 1120 -338 208 -28 606 -30 820 -5 592 72 1150 285 1620 620 234 167
530 444 697 652 426 531 673 1117 759 1800 22 173 25 584 5 755 -114 1003
-631 1878 -1458 2467 -110 79 -300 197 -390 242 l-43 21 0 520 0 520 480 0
480 0 -2 318 -3 317 -477 3 -478 2 0 315 0 315 320 0 320 0 0 320 0 320 -320
0 -320 0 0 315 0 315 480 0 480 0 -2 318 -3 317 -477 3 -478 2 0 315 0 315
320 0 320 0 0 320 0 320 -320 0 -320 0 0 315 0 315 480 0 480 0 -2 318 -3 317
-477 3 -477 2 -3 523 -3 522 -29 53 c-36 65 -82 107 -156 141 l-55 26 -1330 2
c-1258 3 -1333 2 -1382 -15z m2329 -4449 l3 -3828 27 -50 c43 -82 90 -117 276
-210 307 -154 550 -332 792 -582 425 -437 678 -953 777 -1583 26 -164 25 -635
0 -800 -82 -523 -284 -989 -603 -1390 -96 -120 -340 -360 -465 -457 -353 -274
-762 -462 -1189 -547 -227 -45 -292 -51 -580 -51 -233 1 -296 4 -415 23 -762
120 -1414 509 -1868 1116 -289 385 -476 846 -543 1336 -22 156 -25 547 -6 700
82 657 359 1228 822 1690 236 237 477 409 778 556 162 80 212 118 254 196 l23
43 3 3833 2 3832 955 0 955 0 2 -3827z"/>
<path d="M3190 7940 l0 -2860 93 -1 c50 -1 79 -4 62 -6 -602 -72 -1099 -450
-1315 -1000 -186 -475 -131 -1012 147 -1443 231 -356 580 -595 1013 -692 93
-20 130 -23 320 -22 183 0 230 4 313 22 217 48 387 120 565 238 364 243 609
622 684 1058 27 158 22 439 -11 584 -124 559 -507 991 -1039 1176 -95 33 -254
70 -342 79 -19 2 4 5 53 5 l87 2 0 2860 0 2860 -315 0 -315 0 0 -2860z"/>
<path d="M13214 14393 c-460 -667 -913 -1493 -1063 -1941 -91 -272 -94 -518
-10 -775 64 -196 159 -348 313 -503 155 -155 285 -239 482 -307 133 -46 260
-67 414 -67 214 0 389 42 579 140 337 174 578 488 661 865 30 133 33 343 6
464 -74 342 -363 933 -808 1654 -130 211 -427 656 -439 657 -3 0 -63 -84 -135
-187z m184 -1065 c165 -247 433 -761 511 -981 91 -260 93 -381 7 -562 -122
-258 -415 -400 -701 -340 -281 59 -496 316 -497 595 -1 97 24 191 99 380 51
130 218 464 324 650 62 109 200 330 206 330 1 0 24 -33 51 -72z"/>
<path d="M10134 10332 c-669 -1002 -1121 -1876 -1210 -2340 -22 -113 -22 -325
1 -451 140 -793 905 -1320 1685 -1161 565 115 1015 568 1125 1132 23 115 30
305 16 409 -48 361 -322 959 -803 1756 -200 332 -600 943 -617 943 -3 0 -92
-130 -197 -288z m301 -1048 c279 -451 534 -958 630 -1254 55 -171 67 -243 54
-340 -37 -299 -225 -544 -498 -649 -100 -38 -173 -51 -295 -51 -304 1 -568
164 -702 435 -72 147 -99 301 -75 427 50 257 271 737 584 1273 77 131 194 315
201 315 2 0 48 -70 101 -156z"/>
<path d="M13182 6423 c-232 -346 -494 -770 -709 -1148 -352 -618 -626 -1233
-690 -1550 -26 -133 -24 -374 5 -522 67 -338 219 -614 473 -858 229 -220 512
-362 830 -416 106 -18 150 -21 304 -16 251 8 427 49 639 151 659 317 1028
1071 857 1747 -133 526 -666 1542 -1345 2562 -105 158 -194 287 -198 287 -3 0
-78 -107 -166 -237z m284 -1120 c251 -401 528 -914 663 -1230 67 -159 131
-351 156 -473 33 -163 3 -347 -85 -527 -119 -241 -311 -406 -567 -487 -449
-141 -934 68 -1138 489 -61 125 -85 219 -92 352 -5 94 -2 127 17 210 70 305
263 726 605 1324 123 215 313 519 324 519 3 0 56 -80 117 -177z"/>
</g>
</svg>
