<?xml version="1.0"?>
<svg xmlns="http://www.w3.org/2000/svg" xmlns:xlink="http://www.w3.org/1999/xlink" xmlns:svgjs="http://svgjs.com/svgjs" version="1.1" width="512" height="512" x="0" y="0" viewBox="0 0 512 512" style="enable-background:new 0 0 512 512" xml:space="preserve" class=""><g>
<g xmlns="http://www.w3.org/2000/svg">
	<g transform="translate(0 1)">
		<g>
			<g>
				<path style="" d="M102.4,451.267h34.133v42.667c0,4.713-3.821,8.533-8.533,8.533h-17.067      c-4.713,0-8.533-3.821-8.533-8.533V451.267z" fill="#7f8c8d" data-original="#7f8c8d"/>
				<path style="" d="M375.467,451.267H409.6v42.667c0,4.713-3.821,8.533-8.533,8.533H384      c-4.713,0-8.533-3.821-8.533-8.533V451.267z" fill="#7f8c8d" data-original="#7f8c8d"/>
			</g>
			<path style="" d="M93.867,7.533h324.267c9.426,0,17.067,7.641,17.067,17.067v426.667     c0,9.426-7.641,17.067-17.067,17.067H93.867c-9.426,0-17.067-7.641-17.067-17.067V24.6C76.8,15.174,84.441,7.533,93.867,7.533z" fill="#607d8b" data-original="#607d8b"/>
			<path style="" d="M409.6,24.6v426.667c0.297,9.074-6.776,16.691-15.848,17.067H92.648     c-9.071-0.375-16.145-7.992-15.848-17.067V24.6c-0.297-9.074,6.776-16.692,15.848-17.067h301.105     C402.824,7.908,409.897,15.526,409.6,24.6z" fill="#cfd8dc" data-original="#cfd8dc" class=""/>
			<path style="" d="M435.2,24.6v264.533H76.8V24.6c0.028-9.414,7.652-17.039,17.067-17.067h324.267     C427.548,7.561,435.173,15.186,435.2,24.6z" fill="#607d8b" data-original="#607d8b"/>
			<path style="" d="M409.6,24.6v264.533H76.8V24.6c-0.297-9.074,6.776-16.692,15.848-17.067h301.105     C402.824,7.908,409.897,15.526,409.6,24.6z" fill="#cfd8dc" data-original="#cfd8dc" class=""/>
			<path style="" d="M119.467,468.333l15.092-113.189c1.13-8.479,8.363-14.811,16.917-14.811h209.05     c8.554,0,15.786,6.332,16.917,14.811l15.092,113.189" fill="#607d8b" data-original="#607d8b"/>
			<path style="" d="M392.533,468.333H119.467l15.104-113.152c1.098-8.494,8.332-14.851,16.896-14.848h209.067     c8.564-0.003,15.798,6.354,16.896,14.848L392.533,468.333z" fill="#f57c00" data-original="#f57c00" class=""/>
			<path style="" d="M366.933,468.333H119.467l15.104-113.152c1.098-8.494,8.332-14.851,16.896-14.848h183.467     c8.564-0.003,15.798,6.354,16.896,14.848L366.933,468.333z" fill="#ff9801" data-original="#ff9801" class=""/>
			<circle style="" cx="196.267" cy="408.6" r="25.6" fill="#d84315" data-original="#d84315"/>
			<path style="" d="M196.267,400.067c-4.713,0-8.533-3.82-8.533-8.533v-17.067c0-4.713,3.821-8.533,8.533-8.533     s8.533,3.821,8.533,8.533v17.067C204.8,396.246,200.98,400.067,196.267,400.067z" fill="#7f8c8d" data-original="#7f8c8d"/>
			<circle style="" cx="315.733" cy="408.6" r="25.6" fill="#d84315" data-original="#d84315"/>
			<path style="" d="M315.733,400.067c-4.713,0-8.533-3.82-8.533-8.533v-17.067c0-4.713,3.821-8.533,8.533-8.533     c4.713,0,8.533,3.821,8.533,8.533v17.067C324.267,396.246,320.446,400.067,315.733,400.067z" fill="#7f8c8d" data-original="#7f8c8d"/>
		</g>
		<path style="" d="M256,67.267c0,0-59.733,74.846-59.733,106.923c-1.055,34.077,25.659,62.585,59.733,63.744    c34.074-1.159,60.788-29.666,59.733-63.744C315.733,142.113,256,67.267,256,67.267z" fill="#cfd8dc" data-original="#f29c1f" class=""/>
		<path style="" d="M255.994,237.933c-14.113,0-25.594-14.451-25.594-32.211c0.729-8.209,11.231-29.487,25.577-53.122    c14.367,23.707,24.886,45.108,25.623,53.58C281.588,223.482,270.107,237.933,255.994,237.933z" fill="#cfd8dc" data-original="#f44335" class=""/>
	</g>
	<g>
		<path d="M384,512h17.067c9.422-0.009,17.057-7.645,17.067-17.067v-17.067c14.132-0.015,25.585-11.468,25.6-25.6V25.6    c-0.015-14.132-11.468-25.585-25.6-25.6H93.867c-14.132,0.015-25.585,11.468-25.6,25.6v426.667    c0.015,14.132,11.468,25.585,25.6,25.6v17.067c0.009,9.422,7.645,17.057,17.067,17.067H128    c9.422-0.009,17.057-7.645,17.067-17.067v-17.067h221.867v17.067C366.943,504.355,374.578,511.991,384,512z M136.533,460.8h-7.32    l13.803-103.529c0.577-4.233,4.186-7.393,8.459-7.404h209.05c4.273,0.012,7.883,3.174,8.458,7.408L382.786,460.8H136.533z     M401.079,494.933H384v-17.067h17.071L401.079,494.933z M93.867,17.067h324.267c4.71,0.006,8.527,3.823,8.533,8.533v256H85.333    v-256C85.339,20.89,89.156,17.073,93.867,17.067z M85.333,452.267v-153.6h341.333v153.6c-0.006,4.71-3.823,8.527-8.533,8.533    h-18.129L385.9,355.021c-1.727-12.702-12.556-22.185-25.375-22.221h-209.05c-12.817,0.035-23.646,9.516-25.375,22.217    L111.995,460.8H93.867C89.156,460.794,85.339,456.977,85.333,452.267z M128.012,494.933h-17.079v-17.067h17.071L128.012,494.933z" fill="#000000" data-original="#000000" style="" class=""/>
		<path d="M204.8,376.678v-1.212c0-4.713-3.821-8.533-8.533-8.533s-8.533,3.821-8.533,8.533v1.212    c-16.643,4.297-27.494,20.299-25.328,37.35c2.166,17.051,16.673,29.832,33.861,29.832s31.695-12.781,33.861-29.832    C232.294,396.977,221.443,380.976,204.8,376.678z M196.267,426.667c-7.807,0.027-14.63-5.265-16.546-12.833    c-1.916-7.568,1.566-15.469,8.445-19.161c0.895,3.75,4.247,6.395,8.102,6.395s7.206-2.645,8.102-6.395    c6.879,3.692,10.361,11.593,8.445,19.161C210.897,421.402,204.074,426.693,196.267,426.667z" fill="#000000" data-original="#000000" style="" class=""/>
		<path d="M324.267,376.678v-1.212c0-4.713-3.821-8.533-8.533-8.533c-4.713,0-8.533,3.821-8.533,8.533v1.212    c-16.643,4.297-27.494,20.299-25.328,37.35c2.166,17.051,16.673,29.832,33.861,29.832c17.188,0,31.695-12.781,33.861-29.832    C351.76,396.977,340.909,380.976,324.267,376.678z M315.733,426.667c-7.807,0.027-14.63-5.265-16.546-12.833    c-1.916-7.568,1.566-15.469,8.445-19.161c0.895,3.75,4.247,6.395,8.102,6.395c3.855,0,7.206-2.645,8.102-6.395    c6.879,3.692,10.361,11.593,8.445,19.161C330.363,421.402,323.54,426.693,315.733,426.667z" fill="#000000" data-original="#000000" style="" class=""/>
		<path d="M255.993,247.466l0.003,0.001H256c38.776-1.181,69.298-33.495,68.267-72.275c0-34.083-55.292-104.35-61.596-112.25    c-1.68-1.93-4.113-3.038-6.671-3.038c-2.558,0-4.991,1.108-6.671,3.038c-6.304,7.9-61.596,78.167-61.596,112.25    C186.703,213.969,217.22,246.281,255.993,247.466z M238.9,207.475c3.926-13.086,9.672-25.556,17.071-37.042    c7.298,11.437,13.047,23.792,17.096,36.742c-0.009,12.587-7.824,23.224-17.07,23.225l-0.004-0.001    C246.745,230.397,238.933,219.557,238.9,207.475L238.9,207.475z M256,82.192c18.717,24.708,51.2,71.971,51.2,93    c0.128,16.141-6.605,31.576-18.523,42.462c0.908-3.671,1.386-7.435,1.423-11.216c-1.192-13.696-19.154-44.604-26.821-57.259    c-1.545-2.553-4.312-4.113-7.296-4.113h-0.004c-2.982,0-5.748,1.556-7.296,4.105c-7.654,12.608-25.591,43.387-26.817,57.55    c0.042,3.663,0.508,7.31,1.389,10.866c-11.876-10.882-18.582-26.288-18.455-42.395C204.8,154.163,237.283,106.9,256,82.192z" fill="#000000" data-original="#000000" style="" class=""/>
	</g>
</g>
<g xmlns="http://www.w3.org/2000/svg">
</g>
<g xmlns="http://www.w3.org/2000/svg">
</g>
<g xmlns="http://www.w3.org/2000/svg">
</g>
<g xmlns="http://www.w3.org/2000/svg">
</g>
<g xmlns="http://www.w3.org/2000/svg">
</g>
<g xmlns="http://www.w3.org/2000/svg">
</g>
<g xmlns="http://www.w3.org/2000/svg">
</g>
<g xmlns="http://www.w3.org/2000/svg">
</g>
<g xmlns="http://www.w3.org/2000/svg">
</g>
<g xmlns="http://www.w3.org/2000/svg">
</g>
<g xmlns="http://www.w3.org/2000/svg">
</g>
<g xmlns="http://www.w3.org/2000/svg">
</g>
<g xmlns="http://www.w3.org/2000/svg">
</g>
<g xmlns="http://www.w3.org/2000/svg">
</g>
<g xmlns="http://www.w3.org/2000/svg">
</g>
</g></svg>
