<?xml version="1.0"?>
<svg xmlns="http://www.w3.org/2000/svg" xmlns:xlink="http://www.w3.org/1999/xlink" xmlns:svgjs="http://svgjs.com/svgjs" version="1.1" width="512" height="512" x="0" y="0" viewBox="0 0 512 512" style="enable-background:new 0 0 512 512" xml:space="preserve" class=""><g><g xmlns="http://www.w3.org/2000/svg" id="Solid"><path d="M80,408H64V392H80Zm0-80H64v16H80Zm0-64H64v16H80Zm64,80V328H128v16h16Zm230.965-15.968a16.157,16.157,0,0,0-14.939,15.044,15.961,15.961,0,0,0,2.131,8.95A41.574,41.574,0,0,1,368,372.836V376h16v-3.489a40.358,40.358,0,0,1,5.8-20.407,16,16,0,0,0-14.833-24.072ZM32,464V232a16.019,16.019,0,0,1,16-16H67.056l5.789,11.578A8,8,0,0,0,80,232h48a8,8,0,0,0,7.155-4.422L140.944,216H160a16.019,16.019,0,0,1,16,16V388.686l-13.373-13.372a24.944,24.944,0,0,0-35.952.686H120a8,8,0,0,0-8,8v32a8,8,0,0,0,8,8h20.686l9.3,9.3a57.873,57.873,0,0,0-2.57,46.7H48A16.019,16.019,0,0,1,32,464Zm80-176a8,8,0,0,0,8,8h32a8,8,0,0,0,8-8V256a8,8,0,0,0-8-8H120a8,8,0,0,0-8,8Zm0,64a8,8,0,0,0,8,8h32a8,8,0,0,0,8-8V320a8,8,0,0,0-8-8H120a8,8,0,0,0-8,8ZM88,448v16h32V448ZM48,288a8,8,0,0,0,8,8H88a8,8,0,0,0,8-8V256a8,8,0,0,0-8-8H56a8,8,0,0,0-8,8Zm0,64a8,8,0,0,0,8,8H88a8,8,0,0,0,8-8V320a8,8,0,0,0-8-8H56a8,8,0,0,0-8,8Zm0,64a8,8,0,0,0,8,8H88a8,8,0,0,0,8-8V384a8,8,0,0,0-8-8H56a8,8,0,0,0-8,8Zm168-72a16,16,0,0,0-17.032-15.966,15.645,15.645,0,0,0-3.1.518l19.588,19.589A16.049,16.049,0,0,0,216,344Zm-8-112v-3.489a40.358,40.358,0,0,1,5.8-20.407,16,16,0,0,0-14.833-24.072,16.157,16.157,0,0,0-14.939,15.044,15.961,15.961,0,0,0,2.131,8.95A41.574,41.574,0,0,1,192,228.836V232Zm-39.95-33.811c-.052.948-.05,1.892-.02,2.832C165.463,200.355,120,200,120,200V179.588a26.115,26.115,0,0,1,2.343,2.069l11.314-11.314A41.7,41.7,0,0,0,120,161.236V146.168a59.414,59.414,0,0,1,24.355,13.477l-6.012,6.012,16,16,11.314-11.314L151.6,156.284l6.059-6.058a76.242,76.242,0,0,0-7.08-6.226H280V272H192V248h24a8,8,0,0,0,8-8V228.511a24.385,24.385,0,0,1,3.579-12.279,32,32,0,1,0-59.529-18.043ZM264,200H240v16h24Zm-29.657-29.657,11.314,11.314,16-16-11.314-11.314Zm0,75.314,16,16,11.314-11.314-16-16ZM164.055,478.222l.889,1.778H216V384.568a31.791,31.791,0,0,0-9.373-22.627L192,347.314v57.373l13.657,13.656-11.314,11.314-16-16-27.029-27.03a8.971,8.971,0,0,0-12.687,12.687l27.03,27.029a8,8,0,0,1,1,10.095A41.794,41.794,0,0,0,164.055,478.222Zm210.91-294.19a16.157,16.157,0,0,0-14.939,15.044,15.961,15.961,0,0,0,2.131,8.95A41.574,41.574,0,0,1,368,228.836V232h16v-3.489a40.358,40.358,0,0,1,5.8-20.407,16,16,0,0,0-14.833-24.072ZM144,264H128v16h16ZM456,424H232V384.568a47.757,47.757,0,0,0-5.489-22.325c.33-.677.682-1.351,1.074-2.016a32,32,0,0,0-29.606-48.162,31.323,31.323,0,0,0-5.979.964V288h88V408h16V288H440V272H296V144H440V128H296V56H280v72H136v7.073a75.737,75.737,0,0,0-19.33-5.959L288,33.169,380.091,84.74A7.993,7.993,0,0,0,384,85.755V48h32v56.849l43.643,24.44A7.993,7.993,0,0,0,456,136ZM234.343,314.343l11.314,11.314,16-16-11.314-11.314Zm27.314,80-16-16-11.314,11.314,16,16ZM264,344H240v16h24Zm146.343-29.657,11.314,11.314,16-16-11.314-11.314ZM312,360h24V344H312Zm29.657,29.657-11.314-11.314-16,16,11.314,11.314Zm0-75.314-16-16-11.314,11.314,16,16ZM408,344a32.124,32.124,0,0,0-10.087-23.32,32,32,0,0,0-49.583,39.4A25.577,25.577,0,0,1,352,372.836V384a8,8,0,0,0,8,8h32a8,8,0,0,0,8-8V372.511a24.385,24.385,0,0,1,3.579-12.279A31.971,31.971,0,0,0,408,344Zm29.657,50.343-16-16-11.314,11.314,16,16ZM440,344H416v16h24ZM410.343,170.343l11.314,11.314,16-16-11.314-11.314ZM312,216h24V200H312Zm29.657,29.657-11.314-11.314-16,16,11.314,11.314Zm0-75.314-16-16-11.314,11.314,16,16ZM408,200a32.124,32.124,0,0,0-10.087-23.32,32,32,0,0,0-49.583,39.4A25.577,25.577,0,0,1,352,228.836V240a8,8,0,0,0,8,8h32a8,8,0,0,0,8-8V228.511a24.385,24.385,0,0,1,3.579-12.279A31.971,31.971,0,0,0,408,200Zm29.657,50.343-16-16-11.314,11.314,16,16ZM440,200H416v16h24ZM104,174.07h0V158.08a41.8,41.8,0,0,0-29.66,12.26l11.32,11.32A25.856,25.856,0,0,1,104,174.07Zm0-46.03a75.682,75.682,0,0,0-53.66,22.19l11.32,11.31A59.476,59.476,0,0,1,104,144Z" fill="#b5b5b5" data-original="#000000" style="" class=""/></g></g></svg>
